<svg width="22" height="23" viewBox="0 0 22 23" fill="none" xmlns="http://www.w3.org/2000/svg">
<path d="M19.9885 9.70472H19.2502V9.66668H11.0002V13.3333H16.1807C15.4249 15.4678 13.394 17 11.0002 17C7.96279 17 5.50016 14.5374 5.50016 11.5C5.50016 8.46264 7.96279 6.00001 11.0002 6.00001C12.4022 6.00001 13.6777 6.52893 14.649 7.39289L17.2417 4.80009C15.6046 3.2743 13.4147 2.33334 11.0002 2.33334C5.93787 2.33334 1.8335 6.43772 1.8335 11.5C1.8335 16.5623 5.93787 20.6667 11.0002 20.6667C16.0625 20.6667 20.1668 16.5623 20.1668 11.5C20.1668 10.8854 20.1036 10.2854 19.9885 9.70472Z" fill="#FFC107"/>
<path d="M2.89014 7.23339L5.90184 9.44209C6.71676 7.42451 8.69035 6.00001 10.9999 6.00001C12.4019 6.00001 13.6775 6.52893 14.6487 7.39289L17.2415 4.80009C15.6043 3.2743 13.4144 2.33334 10.9999 2.33334C7.47897 2.33334 4.42555 4.32114 2.89014 7.23339Z" fill="#FF3D00"/>
<path d="M11 20.6667C13.3677 20.6667 15.5191 19.7606 17.1458 18.287L14.3087 15.8863C13.3574 16.6097 12.1951 17.001 11 17C8.61573 17 6.59127 15.4797 5.82861 13.3581L2.83936 15.6612C4.35644 18.6299 7.43736 20.6667 11 20.6667Z" fill="#4CAF50"/>
<path d="M19.9884 9.7047H19.25V9.66666H11V13.3333H16.1805C15.819 14.3492 15.1678 15.2369 14.3073 15.8867L14.3087 15.8858L17.1458 18.2865C16.945 18.4689 20.1667 16.0833 20.1667 11.5C20.1667 10.8854 20.1034 10.2854 19.9884 9.7047Z" fill="#1976D2"/>
</svg>
