<svg width="84" height="116" viewBox="0 0 84 116" fill="none" xmlns="http://www.w3.org/2000/svg">
<path d="M68.2691 49.4654C68.2691 49.4654 61.9862 62.1044 55.5982 70.8362C53.0575 74.3078 50.5036 77.159 48.3174 78.3536C46.1837 79.5152 44.3717 81.3236 42.8748 83.33C39.0013 88.5176 37.209 95.0186 37.209 95.0186L20.8813 70.1894C20.8813 70.1894 21.4394 45.9146 23.3958 41.8556C26.2517 35.9354 27.6304 23.9828 28.7333 21.6002C29.5474 19.8314 31.8715 10.7168 32.0947 10.0436C32.1932 9.75317 32.9679 9.31097 33.9724 9.31097C34.7799 9.31097 36.1455 10.0964 36.4934 11.7068C38.2398 19.8446 36.1389 25.2104 36.1586 25.4546C36.7757 31.7114 34.9243 36.3512 36.2243 37.5788C36.2702 37.625 36.3621 37.6052 36.4869 37.5194C38.7387 36.0674 52.7095 15.5942 54.4296 15.152C56.2547 14.6768 68.2691 49.4654 68.2691 49.4654Z" fill="#FFB27D"/>
<path d="M42.1264 90.095C42.1264 90.095 41.9032 101.13 41.2664 115.993H0.0893555C9.49731 95.8172 17.6841 78.8288 17.6841 78.8288C17.6841 78.8288 41.1351 79.5482 42.1264 90.095Z" fill="#46ADFA"/>
<path d="M82.5419 6.68418L77.4867 14.1356L72.5234 21.4484C72.2214 21.818 71.8734 21.9434 71.4926 21.9038C70.3043 21.7916 68.8272 20.0624 67.6783 19.1054L67.5601 19.0064C66.0435 17.7458 65.8334 15.4754 67.0874 13.9508L74.6702 4.73718L76.9221 2.00478C78.176 0.48018 80.4345 0.268982 81.951 1.52958L82.0692 1.62858C83.5858 2.88258 83.7959 5.15958 82.5419 6.68418Z" fill="#FFB27D"/>
<path d="M77.4868 14.1356L72.5234 21.4484C72.2214 21.818 71.8735 21.9434 71.4927 21.9038L74.6703 4.74377C74.6834 4.83617 75.2217 12.5384 77.4868 14.1356Z" fill="#EFA26F"/>
<path d="M55.5983 70.8362C53.0576 74.3078 50.5037 77.159 48.3175 78.3536C46.1838 79.5152 44.3718 81.3236 42.875 83.33C41.1549 82.5248 39.1919 81.5744 37.2748 80.6438C34.9376 79.502 34.8523 76.169 37.137 74.9348C37.1567 74.9216 37.1829 74.9084 37.2026 74.8952C39.3429 73.661 41.5422 69.3116 41.5422 69.3116L55.5983 70.8362Z" fill="#EFA26F"/>
<path d="M31.9897 10.4131L30.6636 15.7856C30.6636 15.7856 31.819 16.2608 32.5609 15.8912C33.3028 15.5216 33.9199 10.7035 31.9897 10.4131Z" fill="#FFC197"/>
<path d="M70.0351 73.3706H41.588C38.7913 73.3706 36.5 71.0672 36.5 68.2556V5.39717C36.5 2.58557 38.7913 0.282166 41.588 0.282166H70.0351C72.8319 0.282166 75.1232 2.58557 75.1232 5.39717V68.2556C75.1232 71.0672 72.8319 73.3706 70.0351 73.3706Z" fill="#2B478B"/>
<path d="M73.2129 5.87898V67.2788C73.2129 69.3644 71.5322 71.0672 69.4707 71.0672H42.1528C40.0979 71.0672 38.4106 69.3644 38.4106 67.2788V5.87898C38.4106 3.79338 40.0913 2.09058 42.1528 2.09058H69.4707C71.5256 2.09058 73.2129 3.79998 73.2129 5.87898Z" fill="#C0D8FB"/>
<path d="M69.4719 2.09058L42.4955 71.0738H42.1606C40.1057 71.0738 38.4185 69.371 38.4185 67.2854V5.87898C38.4185 3.79338 40.0992 2.09058 42.1606 2.09058H69.4719Z" fill="#CBE1FD"/>
<path d="M61.5199 4.37419H50.103C49.1707 4.37419 48.4092 3.60859 48.4092 2.67139V2.40739C48.4092 1.47019 49.1707 0.70459 50.103 0.70459H61.5199C62.4521 0.70459 63.2137 1.47019 63.2137 2.40739V2.67139C63.2137 3.61519 62.4521 4.37419 61.5199 4.37419Z" fill="#2B478B"/>
<path d="M80.0277 34.82L79.2727 35.1104L74.2043 37.0442C74.0861 37.0904 73.968 37.13 73.8432 37.1564C72.1625 37.592 70.3768 36.6944 69.7465 35.0312L69.6743 34.8332C68.9981 33.0512 69.8975 31.0316 71.6767 30.3518L76.4036 28.5434L76.745 28.4114L77.5 28.121C79.2727 27.4412 81.2816 28.3454 81.9513 30.134L82.0235 30.332C82.7063 32.1272 81.8068 34.1468 80.0277 34.82Z" fill="#FFB27D"/>
<path d="M75.9114 34.9388C75.0645 35.2622 73.5348 35.8364 72.7142 35.9486C72.4844 35.9816 72.0577 35.8562 71.6572 35.414C71.4208 35.15 71.191 34.7738 71.0204 34.259C70.9416 34.0148 70.8759 33.7706 70.8497 33.5198C70.8168 33.2294 70.8234 32.9324 70.8759 32.642C70.9219 32.378 71.0991 32.1404 71.3617 32.015C71.3617 32.015 71.3617 32.015 71.3683 32.015C72.2415 31.5992 73.4167 31.0844 74.4408 30.8006C75.1499 30.6026 75.8721 30.9194 76.0953 31.5464L76.2003 31.8368L76.7452 33.335C76.9684 33.962 76.6008 34.6748 75.9114 34.9388Z" fill="#FFD3B6"/>
<path d="M75.9113 34.9388C75.0644 35.2622 73.5347 35.8364 72.7141 35.9486C72.4843 35.9816 72.0576 35.8562 71.6571 35.414C71.6177 35.315 71.5783 35.2094 71.5389 35.0972C71.4601 34.853 71.3945 34.6088 71.3682 34.358C71.3354 34.0676 71.3419 33.7706 71.3945 33.4802C71.4404 33.2162 71.6177 32.9786 71.8803 32.8532C71.8803 32.8532 71.8803 32.8532 71.8869 32.8532C72.76 32.4374 73.9352 31.9226 74.9594 31.6388C75.4124 31.5134 75.872 31.5992 76.2068 31.8368L76.7517 33.335C76.9683 33.962 76.6007 34.6748 75.9113 34.9388Z" fill="#FFC197"/>
<path d="M77.7295 41.9876L73.8166 43.0568C72.6283 43.3802 71.3941 42.674 71.0658 41.4794L70.9476 41.0372C70.6259 39.8426 71.3284 38.6018 72.5167 38.2718L76.4296 37.2026C77.6179 36.8792 78.8521 37.5854 79.1804 38.78L79.2986 39.2222C79.6203 40.4168 78.9178 41.6642 77.7295 41.9876Z" fill="#FFB27D"/>
<path d="M75.6158 41.7962C74.9002 41.9876 73.6003 42.3308 72.9175 42.3638C72.668 42.377 72.1756 42.1658 71.8539 41.5124C71.7751 41.354 71.7095 41.1692 71.657 40.958C71.611 40.7666 71.5716 40.5752 71.5716 40.3772C71.5651 40.1462 71.5979 39.9218 71.657 39.704C71.7161 39.506 71.8802 39.3344 72.0968 39.2552C72.0968 39.2552 72.0968 39.2552 72.1034 39.2552C72.8453 38.9912 73.8497 38.6744 74.7164 38.5226C75.3138 38.417 75.8784 38.7074 76.0228 39.2024L76.1213 39.5588L76.4233 40.6214C76.5546 41.1164 76.2001 41.6378 75.6158 41.7962Z" fill="#FFD3B6"/>
<path d="M75.6154 41.7962C74.8998 41.9876 73.5999 42.3308 72.9171 42.3638C72.6676 42.377 72.1752 42.1658 71.8535 41.5124C71.8076 41.3342 71.7813 41.156 71.7748 40.9712C71.7682 40.7468 71.801 40.5158 71.8601 40.298C71.9192 40.1 72.0833 39.9284 72.3 39.8492C72.3 39.8492 72.3 39.8492 72.3065 39.8492C73.0484 39.5852 74.0529 39.2684 74.9195 39.1166C75.4119 39.0308 75.8911 39.2156 76.1144 39.5588L76.4164 40.6214C76.5542 41.1164 76.1997 41.6378 75.6154 41.7962Z" fill="#FFC197"/>
<path d="M13.6729 87.1976C13.6729 87.1976 21.7218 94.946 27.1447 97.9358L31.2545 95.0054V99.3284C31.2545 99.3284 39.3363 100.767 41.8836 99.3284V87.5474L19.1942 76.1162L13.6729 87.1976Z" fill="#447FAB"/>
<path d="M43.5973 98.3978C40.4723 99.0446 33.7363 96.5762 33.7363 96.5762L34.8262 86.0228L27.2105 94.7876C23.337 93.3356 17.2773 89.5538 13.6796 87.2042C11.8873 86.0294 10.7056 85.211 10.7056 85.211C15.787 76.994 20.8948 69.305 20.8948 69.305C22.3917 72.3212 25.9434 74.9414 29.7907 77.0336C36.1852 80.5184 43.4069 82.5512 43.4069 82.5512C43.4003 88.8212 43.5973 98.3978 43.5973 98.3978Z" fill="#DCEAFF"/>
<path d="M79.9026 27.2894C79.8763 27.3026 79.8501 27.3092 79.8172 27.3158L74.6898 28.6358C72.438 29.2166 70.1073 27.989 69.5099 25.91L69.2079 24.8474C68.6367 22.8476 69.8644 20.762 71.9587 20.0822L73.6525 19.6466L77.0861 18.7622C79.338 18.1814 81.6686 19.409 82.2661 21.488L82.5681 22.5506C83.1327 24.524 81.9444 26.5832 79.9026 27.2894Z" fill="#FFB27D"/>
<path d="M77.5585 25.8506L75.0703 26.9792C75.0638 26.9792 75.0638 26.9792 75.0572 26.9858C74.9587 27.0122 74.8537 27.032 74.7552 27.0452C74.7158 27.0518 74.6699 27.0584 74.6305 27.0584C74.6108 27.0584 74.5976 27.0584 74.5779 27.0584C74.3022 27.0518 74.1184 26.7548 74.2365 26.4974C74.4729 25.9826 74.5385 25.3886 74.3744 24.8012L74.3153 24.5834V24.5768L74.1249 23.864C73.9739 23.2964 73.6457 22.8212 73.2189 22.478C73.1664 22.4384 73.1139 22.3988 73.0614 22.3592C72.569 22.016 72.6937 21.2372 73.2715 21.0788C73.278 21.0788 73.2846 21.0788 73.2846 21.0722L76.0157 20.6564C76.6919 20.4716 77.3419 20.993 77.5257 21.6728L77.7424 22.4846L78.2085 24.2138C78.3923 24.9002 78.2282 25.6658 77.5585 25.8506Z" fill="#FFD3B6"/>
<path d="M77.5588 25.8506L75.0706 26.9792C75.0641 26.9792 75.0641 26.9792 75.0575 26.9858C74.9984 26.999 74.8146 27.0254 74.5782 27.065C74.3025 27.0584 74.1187 26.7614 74.2368 26.504C74.4732 25.9892 74.5388 25.3952 74.3747 24.8078L74.3156 24.59V24.5834L74.1252 23.8706C73.9742 23.303 73.646 22.8278 73.2192 22.4846C73.3046 22.3526 73.4359 22.2536 73.6132 22.2074C73.6197 22.2074 73.6263 22.2074 73.6263 22.2008L76.3574 21.785C76.9286 21.6266 77.4801 21.9764 77.7492 22.4912L78.2154 24.2204C78.3926 24.9002 78.2285 25.6658 77.5588 25.8506Z" fill="#FFC197"/>
<path d="M36.5003 54.092C36.5003 54.092 35.3843 44.2778 34.3535 42.3638C33.3228 40.4498 32.4496 36.6152 34.0384 33.7706C35.6206 30.926 36.1721 25.448 36.1721 25.448C36.7892 31.7048 34.9378 36.3446 36.2377 37.5722C36.2837 37.6184 36.3756 37.5986 36.5003 37.5128V54.092Z" fill="#EFA26F"/>
<path d="M22.641 38.1068H61.4808C62.8267 38.1068 63.9231 37.0112 63.9231 35.6516V20.0162C63.9231 18.6632 62.8332 17.561 61.4808 17.561H22.641C21.2951 17.561 20.1987 18.6566 20.1987 20.0162V35.6516C20.1987 37.0112 21.2951 38.1068 22.641 38.1068Z" fill="#699DEE"/>
<path d="M61.75 14.9606H46.5515C45.4223 14.9606 44.5098 14.0432 44.5098 12.908V10.0106C44.5098 8.87541 45.4223 7.95801 46.5515 7.95801H61.75C62.8792 7.95801 63.7918 8.87541 63.7918 10.0106V12.908C63.7918 14.0432 62.8792 14.9606 61.75 14.9606Z" fill="#9ABFF6"/>
<path d="M69.9827 48.6997C69.5888 48.0199 68.8797 46.7857 68.6368 46.0927C68.5712 45.8947 68.5777 45.5053 68.8141 45.0895C68.9585 44.8387 69.1817 44.5813 69.5231 44.3503C69.6807 44.2447 69.8448 44.1457 70.0221 44.0797C70.2256 44.0071 70.4423 43.9675 70.6589 43.9609C70.8559 43.9609 71.0594 44.0731 71.2038 44.2777C71.67 44.9641 72.2674 45.9013 72.6679 46.7461C72.9502 47.3335 72.8583 48.0067 72.4512 48.3037L72.2608 48.4423L71.2892 49.1551C70.8821 49.4587 70.3044 49.2541 69.9827 48.6997Z" fill="#FFD3B6"/>
<path d="M52.4272 10.1096H47.3129C47.1356 10.1096 46.9912 9.96437 46.9912 9.78617V9.63437C46.9912 9.45617 47.1356 9.31097 47.3129 9.31097H52.4272C52.6045 9.31097 52.7489 9.45617 52.7489 9.63437V9.78617C52.7489 9.96437 52.6045 10.1096 52.4272 10.1096Z" fill="#699DEE"/>
<path d="M52.4929 12.1688H47.2538C47.1094 12.1688 46.9912 12.05 46.9912 11.9048C46.9912 11.7596 47.1094 11.6408 47.2538 11.6408H52.4929C52.6373 11.6408 52.7555 11.7596 52.7555 11.9048C52.7489 12.05 52.6373 12.1688 52.4929 12.1688Z" fill="#699DEE"/>
<path d="M50.1688 13.4096H47.1882C47.0766 13.4096 46.9912 13.3172 46.9912 13.2116V13.0862C46.9912 12.974 47.0831 12.8882 47.1882 12.8882H50.1688C50.2804 12.8882 50.3657 12.9806 50.3657 13.0862V13.2116C50.3723 13.3172 50.2804 13.4096 50.1688 13.4096Z" fill="#699DEE"/>
<path d="M56.2481 13.4096H51.4292C51.2913 13.4096 51.1797 13.2974 51.1797 13.1588V13.139C51.1797 13.0004 51.2913 12.8882 51.4292 12.8882H56.2481C56.3859 12.8882 56.4975 13.0004 56.4975 13.139V13.1588C56.4975 13.2974 56.3859 13.4096 56.2481 13.4096Z" fill="#699DEE"/>
<path d="M60.7521 12.1688H53.8783C53.7339 12.1688 53.6157 12.05 53.6157 11.9048C53.6157 11.7596 53.7339 11.6408 53.8783 11.6408H60.7521C60.8966 11.6408 61.0147 11.7596 61.0147 11.9048C61.0082 12.05 60.89 12.1688 60.7521 12.1688Z" fill="#699DEE"/>
<path d="M42.2775 29.5598H30.8737C30.5651 29.5598 30.3091 29.3024 30.3091 28.9922C30.3091 28.682 30.5651 28.4246 30.8737 28.4246H42.2775C42.586 28.4246 42.8421 28.682 42.8421 28.9922C42.8421 29.3024 42.586 29.5598 42.2775 29.5598Z" fill="#CBE1FD"/>
<path d="M60.2462 29.5598H45.2907C44.9821 29.5598 44.7261 29.3024 44.7261 28.9922C44.7261 28.682 44.9821 28.4246 45.2907 28.4246H60.2462C60.5548 28.4246 60.8108 28.682 60.8108 28.9922C60.8108 29.3024 60.5548 29.5598 60.2462 29.5598Z" fill="#CBE1FD"/>
<path d="M36.651 32.1602H25.2472C24.9387 32.1602 24.6826 31.9028 24.6826 31.5926C24.6826 31.2824 24.9387 31.025 25.2472 31.025H36.651C36.9596 31.025 37.2156 31.2824 37.2156 31.5926C37.2156 31.9028 36.9596 32.1602 36.651 32.1602Z" fill="#CBE1FD"/>
<path d="M54.6201 32.1602H39.6711C39.3625 32.1602 39.1064 31.9028 39.1064 31.5926C39.1064 31.2824 39.3625 31.025 39.6711 31.025H54.6266C54.9352 31.025 55.1912 31.2824 55.1912 31.5926C55.1847 31.9028 54.9352 32.1602 54.6201 32.1602Z" fill="#CBE1FD"/>
<path d="M38.5812 34.9124H27.1774C26.8688 34.9124 26.6128 34.655 26.6128 34.3448C26.6128 34.0346 26.8688 33.7772 27.1774 33.7772H38.5812C38.8898 33.7772 39.1458 34.0346 39.1458 34.3448C39.1524 34.655 38.8963 34.9124 38.5812 34.9124Z" fill="#CBE1FD"/>
<path d="M56.5502 34.9124H41.6012C41.2927 34.9124 41.0366 34.655 41.0366 34.3448C41.0366 34.0346 41.2927 33.7772 41.6012 33.7772H56.5502C56.8588 33.7772 57.1148 34.0346 57.1148 34.3448C57.1214 34.655 56.8654 34.9124 56.5502 34.9124Z" fill="#CBE1FD"/>
<path d="M57.4166 10.1096H53.7401C53.5891 10.1096 53.4644 9.98418 53.4644 9.83238V9.58158C53.4644 9.42978 53.5891 9.30438 53.7401 9.30438H57.4166C57.5676 9.30438 57.6923 9.42978 57.6923 9.58158V9.83238C57.6923 9.99078 57.5676 10.1096 57.4166 10.1096Z" fill="#699DEE"/>
<path d="M43.6821 5.93183L43.2948 6.21563L42.9009 5.93843C42.9862 5.81303 43.1307 5.73383 43.2948 5.73383C43.4524 5.73383 43.5968 5.81303 43.6821 5.93183Z" fill="white"/>
<path d="M43.295 5.04736C42.9011 5.04736 42.5597 5.24536 42.3496 5.54236L42.5991 5.71396C42.7567 5.49616 43.0127 5.35096 43.3016 5.35096C43.5904 5.35096 43.8399 5.48956 43.9975 5.71396L44.2469 5.53576C44.0237 5.23876 43.6823 5.04736 43.295 5.04736Z" fill="white"/>
<path d="M43.2949 3.74719C42.4677 3.74719 41.7324 4.16299 41.2925 4.79659L41.542 4.96819C41.9293 4.41379 42.5727 4.05079 43.3014 4.05079C44.0171 4.05079 44.6604 4.40719 45.0478 4.95499L45.2907 4.77679C44.8443 4.15639 44.1155 3.74719 43.2949 3.74719Z" fill="white"/>
<path d="M43.295 4.45996C42.7041 4.45996 42.1855 4.75036 41.8638 5.19916L42.1132 5.37076C42.3759 5.00116 42.8092 4.75696 43.295 4.75696C43.7808 4.75696 44.2076 4.99456 44.4702 5.35756L44.7131 5.17936C44.3979 4.75036 43.8793 4.45996 43.295 4.45996Z" fill="white"/>
<path d="M65.5381 11.3108C65.5381 11.8916 65.735 12.4196 66.0567 12.8486C66.1618 12.9872 66.2865 13.1192 66.4244 13.2314C66.8577 13.601 67.4289 13.8254 68.046 13.8254C68.604 13.8254 69.1227 13.6406 69.5429 13.3238C69.7267 13.1852 69.8908 13.0202 70.0287 12.842C70.357 12.4196 70.5473 11.885 70.5473 11.3042C70.5473 9.91156 69.4247 8.78296 68.0394 8.78296C66.6542 8.78296 65.5381 9.91816 65.5381 11.3108Z" fill="white"/>
<path d="M69.3195 12.7364C69.3195 12.7298 69.313 12.7232 69.3064 12.7166C69.2933 12.7034 69.2801 12.6902 69.267 12.677C69.2342 12.6506 69.1948 12.6308 69.1423 12.611C69.1423 12.611 69.1423 12.611 69.1357 12.611C68.919 12.5186 68.6302 12.4856 68.6302 12.4856C68.5514 12.4724 68.4857 12.4658 68.4529 12.4592C68.4332 12.4394 68.4135 12.413 68.3873 12.3734C68.315 12.248 68.2494 12.017 68.2363 11.7068C68.2363 11.7068 68.3282 11.489 68.4529 11.555C68.6499 11.6606 69.0175 11.2316 68.8993 10.664C68.8862 10.6046 68.8731 10.5452 68.8534 10.499C68.8928 10.5188 68.9387 10.532 68.9847 10.532C69.0963 10.532 69.267 10.2416 69.2933 10.1492C69.3195 10.0502 69.2933 9.73339 69.1357 9.64099C68.9847 9.54858 68.7483 9.65418 68.7352 9.66078C68.814 9.55518 69.0766 9.57499 69.1226 9.58159C68.512 9.45619 68.3807 9.85219 68.3741 9.88519C67.9868 9.52879 67.3894 10.1426 67.2449 10.3076C67.2318 10.3142 67.2252 10.3274 67.2121 10.334C67.1793 10.3538 67.1399 10.3868 67.1005 10.433C67.0217 10.5254 67.002 10.6442 67.002 10.763C67.002 10.9676 67.0808 11.1524 67.0808 11.1524C67.1136 11.4956 67.2121 11.918 67.3697 11.9312C67.3697 11.9312 67.4222 11.9312 67.5075 11.9246C67.5075 11.9312 67.5075 11.9312 67.5075 11.9378C67.5075 11.9972 67.5141 12.0632 67.5141 12.1226V12.1622C67.5141 12.3338 67.501 12.4988 67.4681 12.5186C67.455 12.5186 67.4419 12.5186 67.4353 12.5186C67.4222 12.5186 67.3893 12.5252 67.3893 12.5252C67.2515 12.545 67.153 12.5582 67.0874 12.5714C66.9495 12.5978 66.9167 12.611 66.8838 12.6374C66.8773 12.644 66.8707 12.6572 66.8576 12.6638C66.7591 12.7364 66.5753 12.9146 66.4111 13.2512C66.4374 13.271 66.4571 13.2908 66.4834 13.3106C66.4899 13.3106 66.4899 13.3172 66.4965 13.3172C66.5162 13.3304 66.5359 13.3436 66.5556 13.3568C66.5687 13.37 66.5818 13.3766 66.595 13.3898C66.6081 13.3964 66.6212 13.4096 66.6344 13.4162C66.654 13.4294 66.6737 13.4426 66.6934 13.4558C66.7066 13.4624 66.7197 13.4756 66.7328 13.4822C66.7525 13.4954 66.7657 13.502 66.7854 13.5152C66.805 13.5284 66.8247 13.535 66.8444 13.5482C66.8444 13.5482 66.8444 13.5482 66.851 13.5482L66.8576 13.5548C66.8707 13.5614 66.8904 13.5746 66.9035 13.5812C66.9101 13.5812 66.9167 13.5878 66.9167 13.5878C66.9232 13.5944 66.9364 13.5944 66.9429 13.601C66.9495 13.6076 66.9626 13.6076 66.9692 13.6142C66.9889 13.6208 67.0086 13.634 67.0283 13.6406C67.048 13.6472 67.0677 13.6604 67.0874 13.667C67.0939 13.6736 67.107 13.6736 67.1136 13.6802C67.1202 13.6802 67.1333 13.6868 67.1399 13.6934C67.1596 13.7 67.1793 13.7066 67.199 13.7132C67.2187 13.7198 67.2383 13.7264 67.258 13.733C67.2777 13.7396 67.2909 13.7462 67.3106 13.7462H67.3171C67.3303 13.7462 67.3368 13.7528 67.35 13.7528C67.409 13.7726 67.4681 13.7858 67.5338 13.7924C67.56 13.799 67.5863 13.8056 67.6126 13.8056C67.6191 13.8056 67.6257 13.8056 67.6323 13.8056H67.6388C67.6585 13.8056 67.6716 13.8122 67.6913 13.8122C67.6979 13.8122 67.6979 13.8122 67.7045 13.8122H67.711C67.7307 13.8122 67.7439 13.8188 67.757 13.8188H67.7636C67.7701 13.8188 67.7767 13.8188 67.7767 13.8188C67.803 13.8188 67.8358 13.8254 67.862 13.8254H67.8686C67.8752 13.8254 67.8883 13.8254 67.8949 13.8254C67.9014 13.8254 67.908 13.8254 67.9146 13.8254C67.9408 13.8254 67.9737 13.8254 67.9999 13.8254C68.558 13.8254 69.0766 13.6406 69.4968 13.3238C69.4705 13.0862 69.3917 12.875 69.3195 12.7364Z" fill="#F99746"/>
<path d="M43.5969 98.3978C40.4719 99.0446 33.7359 96.5762 33.7359 96.5762L34.8258 86.0228L27.2101 94.7876C23.3366 93.3356 17.2769 89.5538 13.6792 87.2042C22.9033 86.1944 29.7903 77.0402 29.7903 77.0402C36.1848 80.525 43.4065 82.5578 43.4065 82.5578C43.3999 88.8212 43.5969 98.3978 43.5969 98.3978Z" fill="#CBE1FD"/>
<path d="M22.1485 88.8146C22.1551 88.1084 22.7262 87.5474 23.4287 87.554C24.1312 87.5606 24.6892 88.1348 24.6827 88.841C24.6761 89.5472 24.1049 90.1082 23.4025 90.1016C22.7 90.0884 22.1419 89.5142 22.1485 88.8146Z" fill="#F99746"/>
</svg>
