<svg width="18" height="19" viewBox="0 0 18 19" fill="none" xmlns="http://www.w3.org/2000/svg">
<path d="M8.99967 8.83333C8.02721 8.83333 7.09458 8.44703 6.40695 7.75939C5.71932 7.07176 5.33301 6.13913 5.33301 5.16667C5.33301 4.19421 5.71932 3.26158 6.40695 2.57394C7.09458 1.88631 8.02721 1.5 8.99967 1.5C9.97214 1.5 10.9048 1.88631 11.5924 2.57394C12.28 3.26158 12.6663 4.19421 12.6663 5.16667C12.6663 6.13913 12.28 7.07176 11.5924 7.75939C10.9048 8.44703 9.97214 8.83333 8.99967 8.83333Z" stroke="white" stroke-width="2" stroke-linecap="round"/>
<path d="M1.6665 18V17.0833C1.6665 15.6247 2.24597 14.2257 3.27742 13.1943C4.30887 12.1628 5.70781 11.5833 7.1665 11.5833H10.8332C12.2919 11.5833 13.6908 12.1628 14.7223 13.1943C15.7537 14.2257 16.3332 15.6247 16.3332 17.0833V18" stroke="white" stroke-width="2" stroke-linecap="round"/>
</svg>
